<?xml version="1.0" encoding="utf-8"?>
<!-- Generator: Adobe Illustrator 16.0.0, SVG Export Plug-In . SVG Version: 6.00 Build 0)  -->
<!DOCTYPE svg PUBLIC "-//W3C//DTD SVG 1.1//EN" "http://www.w3.org/Graphics/SVG/1.1/DTD/svg11.dtd">
<svg version="1.1" id="Vrstva_1" xmlns="http://www.w3.org/2000/svg" xmlns:xlink="http://www.w3.org/1999/xlink" x="0px" y="0px"
	 width="81.667px" height="81.667px" viewBox="0 0 81.667 81.667" enable-background="new 0 0 81.667 81.667" xml:space="preserve">
<path fill="none" d="M-4.025-4.175h0.982C-3.263-4.181-3.476-4.185-3.66-4.185C-3.786-4.185-3.903-4.179-4.025-4.175z"/>
<path fill="#264CAA" d="M40.834,0C18.282,0,0,18.281,0,40.833c0,22.552,18.282,40.834,40.834,40.834
	c22.551,0,40.833-18.282,40.833-40.834C81.667,18.281,63.385,0,40.834,0z M50.458,42.329h-7.713v23.936h-8.931V42.329h-6.251V34.93
	h6.251v-3.496c0-2.944,0.264-5.095,0.804-6.577c0.751-2.022,2.085-3.678,3.964-4.927c2.53-1.681,7.21-2.209,12.369-1.613v8.136
	h-2.668c-0.209-0.005-0.41-0.009-0.586-0.009c-0.119,0-0.23,0.005-0.346,0.009h-0.076v0.002c-1.646,0.053-2.811,0.412-3.459,1.078
	c-0.488,0.502-1.07,1.689-1.07,4.491v2.906h8.807L50.458,42.329z"/>
<path fill="#335587" d="M-883.201-113.789h0.982c-0.221-0.005-0.434-0.009-0.617-0.009
	C-882.962-113.797-883.08-113.792-883.201-113.789z"/>
</svg>
