<?xml version="1.0" encoding="utf-8"?>
<!-- Generator: Adobe Illustrator 16.0.0, SVG Export Plug-In . SVG Version: 6.00 Build 0)  -->
<!DOCTYPE svg PUBLIC "-//W3C//DTD SVG 1.1//EN" "http://www.w3.org/Graphics/SVG/1.1/DTD/svg11.dtd">
<svg version="1.1" id="Vrstva_1" xmlns="http://www.w3.org/2000/svg" xmlns:xlink="http://www.w3.org/1999/xlink" x="0px" y="0px"
	 width="81.667px" height="81.667px" viewBox="0 0 81.667 81.667" enable-background="new 0 0 81.667 81.667" xml:space="preserve">
<g>
	<path fill="#E0604B" d="M40.833,0C18.282,0,0,18.282,0,40.833s18.282,40.833,40.833,40.833c22.551,0,40.833-18.281,40.833-40.833
		S63.384,0,40.833,0z M49.06,57.277c-1.079,2.462-2.999,4.143-5.353,5.354c-2.579,1.326-5.353,1.857-8.225,1.953
		c-2.282,0.074-4.539-0.115-6.729-0.809c-1.759-0.557-3.366-1.39-4.63-2.771c-2.183-2.385-2.508-5.585-0.881-8.389
		c1.137-1.961,2.859-3.227,4.877-4.145c1.857-0.844,3.825-1.284,5.836-1.559c1.226-0.169,2.458-0.271,3.695-0.35
		c0.041-0.143-0.082-0.201-0.145-0.282c-0.479-0.626-0.949-1.259-1.22-2.009c-0.393-1.087-0.406-2.177,0.013-3.262
		c0.077-0.198,0.158-0.394,0.257-0.638c-0.483,0.031-0.933,0.073-1.384,0.085c-3.456,0.093-6.395-1.009-8.412-3.922
		c-2.042-2.95-2.151-6.121-0.672-9.347c1.233-2.691,3.362-4.446,6.045-5.584c2.242-0.951,4.596-1.429,7.018-1.458
		c3.958-0.047,7.918-0.013,11.989-0.013c-0.838,0.526-1.635,0.949-2.341,1.492c-0.935,0.718-1.939,0.995-3.101,0.875
		c-0.596-0.061-1.203-0.011-1.901-0.011c0.177,0.15,0.284,0.24,0.392,0.331c1.705,1.432,3.006,3.142,3.473,5.358
		c0.742,3.522-0.17,6.532-2.893,8.954c-0.664,0.591-1.398,1.097-2.023,1.731c-0.316,0.321-0.62,0.653-0.863,1.035
		c-0.715,1.129-0.586,2.417,0.353,3.364c0.804,0.809,1.767,1.424,2.642,2.146c1.283,1.062,2.588,2.11,3.536,3.501
		C50.224,51.565,50.324,54.395,49.06,57.277z M65.033,41.66c-1.687-0.016-3.373-0.001-5.061-0.014
		c-0.275-0.002-0.361,0.062-0.355,0.348c0.02,0.865,0.008,1.732,0.008,2.597c0,0.855-0.014,1.71,0.006,2.564
		c0.007,0.287-0.084,0.354-0.359,0.348c-0.73-0.02-1.461-0.02-2.191,0c-0.263,0.006-0.316-0.084-0.314-0.328
		c0.01-1.72-0.004-3.441,0.012-5.161c0.004-0.304-0.08-0.371-0.373-0.369c-1.71,0.015-3.419,0.002-5.128,0.012
		c-0.231,0.001-0.308-0.051-0.303-0.294c0.017-0.753,0.019-1.507-0.001-2.26c-0.007-0.275,0.061-0.359,0.348-0.357
		c1.676,0.015,3.352,0.009,5.027,0.006c0.477,0,0.422,0.062,0.422-0.438c0.002-1.676,0.006-3.351-0.005-5.027
		c-0.002-0.263,0.065-0.346,0.335-0.339c0.73,0.019,1.463,0.018,2.193,0c0.262-0.006,0.34,0.062,0.338,0.333
		c-0.013,1.709,0,3.419-0.014,5.128c-0.002,0.281,0.072,0.354,0.352,0.352c1.698-0.014,3.396,0.003,5.094-0.015
		c0.324-0.003,0.391,0.098,0.381,0.395c-0.02,0.708-0.027,1.417,0.003,2.125C65.46,41.608,65.343,41.662,65.033,41.66z"/>
	<path fill="#E0604B" d="M38.429,38.732c1.735-0.344,3.132-1.223,3.881-2.913c0.404-0.911,0.509-1.88,0.508-3.008
		c-0.016-1.285-0.258-2.676-0.691-4.031c-0.606-1.897-1.47-3.653-2.984-5.004c-1.494-1.332-3.221-1.809-5.16-1.197
		c-1.987,0.626-3.165,2.013-3.589,4.043c-0.354,1.698-0.191,3.38,0.218,5.042c0.476,1.932,1.235,3.733,2.607,5.218
		C34.627,38.408,36.352,39.144,38.429,38.732z"/>
	<path fill="#E0604B" d="M44.001,51.625c-1.196-1.164-2.567-2.109-3.904-3.098c-0.317-0.233-0.641-0.332-1.025-0.34
		c-1.33-0.023-2.65,0.086-3.963,0.279c-1.597,0.236-3.144,0.637-4.57,1.426c-3.162,1.751-3.768,4.774-2.835,7.298
		c0.643,1.739,1.951,2.877,3.571,3.683c1.943,0.965,4.03,1.273,6.22,1.298c1.839-0.02,3.67-0.269,5.367-1.164
		c2.423-1.278,3.604-3.807,2.99-6.425C45.572,53.387,44.859,52.459,44.001,51.625z"/>
</g>
</svg>
