<?xml version="1.0" encoding="utf-8"?>
<!-- Generator: Adobe Illustrator 16.0.0, SVG Export Plug-In . SVG Version: 6.00 Build 0)  -->
<!DOCTYPE svg PUBLIC "-//W3C//DTD SVG 1.1//EN" "http://www.w3.org/Graphics/SVG/1.1/DTD/svg11.dtd">
<svg version="1.1" id="Vrstva_1" xmlns="http://www.w3.org/2000/svg" xmlns:xlink="http://www.w3.org/1999/xlink" x="0px" y="0px"
	 width="81.667px" height="81.667px" viewBox="0 0 81.667 81.667" enable-background="new 0 0 81.667 81.667" xml:space="preserve">
<path fill="none" d="M-4.025-4.175h0.982C-3.263-4.181-3.476-4.185-3.66-4.185C-3.786-4.185-3.903-4.179-4.025-4.175z"/>
<path fill="#335587" d="M-883.201-113.789h0.982c-0.221-0.005-0.434-0.009-0.617-0.009
	C-882.962-113.797-883.08-113.792-883.201-113.789z"/>
<path fill="#3380CC" d="M40.833,0C18.282,0,0,18.281,0,40.834c0,22.551,18.282,40.833,40.834,40.833s40.833-18.281,40.833-40.833
	C81.667,18.281,63.385,0,40.833,0z M28.763,60.417c0.001,0.271-0.067,0.342-0.34,0.34c-2.787-0.01-5.574-0.01-8.361,0
	c-0.234,0-0.293-0.059-0.293-0.293c0.006-9.467,0.007-18.932,0-28.397c0-0.242,0.05-0.316,0.306-0.315
	c2.786,0.01,5.573,0.01,8.36-0.001c0.264,0,0.33,0.065,0.328,0.329c-0.008,4.728-0.006,9.456-0.006,14.183
	C28.757,50.981,28.755,55.698,28.763,60.417z M24.226,27.801c-2.87-0.031-5.193-2.398-5.168-5.266
	c0.025-2.903,2.375-5.234,5.254-5.21c2.898,0.025,5.25,2.403,5.223,5.28C29.505,25.492,27.113,27.833,24.226,27.801z M62.262,60.758
	c-2.777-0.014-5.555-0.014-8.333-0.002c-0.289,0.002-0.379-0.053-0.377-0.365c0.011-4.857,0.01-9.717,0.006-14.574
	c-0.001-1.225-0.066-2.445-0.393-3.635c-0.271-0.99-0.725-1.871-1.584-2.484c-0.484-0.345-1.027-0.56-1.615-0.659
	c-0.975-0.165-1.943-0.129-2.896,0.127c-1.543,0.413-2.52,1.435-3.056,2.915c-0.485,1.338-0.591,2.734-0.593,4.139
	c-0.008,4.73-0.004,9.459,0.002,14.188c0,0.254-0.039,0.352-0.33,0.352c-2.777-0.014-5.556-0.014-8.333,0
	c-0.274,0-0.32-0.082-0.319-0.332c0.007-4.719,0.005-9.438,0.005-14.156c0-4.719,0.003-9.438-0.007-14.157
	c0-0.283,0.061-0.365,0.355-0.363c2.639,0.013,5.276,0.012,7.914,0c0.292-0.001,0.363,0.085,0.358,0.367
	c-0.017,1.125-0.008,2.25-0.005,3.375c0.001,0.079-0.054,0.195,0.068,0.23c0.117,0.035,0.141-0.08,0.183-0.153
	c0.802-1.399,1.943-2.451,3.339-3.235c1.492-0.84,3.105-1.236,4.815-1.272c1.681-0.035,3.331,0.13,4.929,0.683
	c2.423,0.839,4.057,2.496,5.002,4.855c0.774,1.935,1.029,3.969,1.145,6.03c0.065,1.184,0.06,2.367,0.06,3.551
	c0.001,4.738-0.003,9.477,0.007,14.215C62.609,60.67,62.563,60.76,62.262,60.758z"/>
</svg>
