<?xml version="1.0" encoding="utf-8"?>
<!-- Generator: Adobe Illustrator 16.0.0, SVG Export Plug-In . SVG Version: 6.00 Build 0)  -->
<!DOCTYPE svg PUBLIC "-//W3C//DTD SVG 1.1//EN" "http://www.w3.org/Graphics/SVG/1.1/DTD/svg11.dtd">
<svg version="1.1" id="Vrstva_1" xmlns="http://www.w3.org/2000/svg" xmlns:xlink="http://www.w3.org/1999/xlink" x="0px" y="0px"
	 width="81.667px" height="81.667px" viewBox="0 0 81.667 81.667" enable-background="new 0 0 81.667 81.667" xml:space="preserve">
<path fill="#009DEB" d="M40.834,0C18.283,0,0,18.282,0,40.834c0,22.551,18.282,40.833,40.834,40.833
	c22.551,0,40.832-18.281,40.832-40.833C81.667,18.282,63.385,0,40.834,0z M62.975,30.303c-0.027,0.048-0.057,0.095-0.089,0.14
	c-1.104,1.592-2.427,2.974-3.983,4.128c-0.146,0.108-0.203,0.223-0.2,0.404c0.025,1.19,0.003,2.377-0.136,3.563
	c-0.334,2.845-1.126,5.558-2.363,8.139c-1.455,3.037-3.416,5.699-5.939,7.939c-1.369,1.216-2.857,2.26-4.473,3.121
	c-3.099,1.654-6.411,2.548-9.91,2.783c-0.289,0.02-0.582-0.002-0.869,0.06c-0.67,0-1.339,0-2.008,0
	c-0.067-0.011-0.134-0.026-0.202-0.028c-0.605-0.018-1.21-0.075-1.812-0.148c-3.623-0.439-6.979-1.637-10.078-3.558
	c-0.083-0.052-0.174-0.097-0.229-0.185c0.573,0.057,1.147,0.102,1.723,0.113c0.832,0.019,1.66-0.031,2.485-0.135
	c3.102-0.389,5.896-1.533,8.396-3.408c0.049-0.037,0.113-0.066,0.129-0.148c-0.037-0.004-0.061-0.009-0.085-0.01
	c-1.4-0.058-2.716-0.42-3.931-1.12c-1.877-1.082-3.191-2.644-3.928-4.685c-0.084-0.231-0.066-0.248,0.176-0.209
	c1.139,0.185,2.271,0.146,3.394-0.122c0.044-0.011,0.103,0.003,0.13-0.067c-0.068-0.018-0.133-0.036-0.198-0.053
	c-1.87-0.472-3.429-1.444-4.649-2.936c-1.276-1.561-1.945-3.351-1.965-5.375c-0.002-0.239,0.026-0.254,0.241-0.144
	c1.005,0.517,2.071,0.821,3.193,0.931c0.112,0.011,0.228,0.026,0.372-0.015c-0.074-0.058-0.121-0.097-0.17-0.133
	c-0.422-0.316-0.821-0.657-1.182-1.044c-1.686-1.811-2.482-3.948-2.383-6.422c0.055-1.337,0.418-2.586,1.055-3.761
	c0.105-0.195,0.129-0.196,0.279-0.018c0.838,1.007,1.75,1.941,2.734,2.806c2.074,1.82,4.386,3.254,6.939,4.295
	c2.506,1.022,5.108,1.623,7.812,1.777c0.24,0.013,0.241,0.009,0.194-0.236c-0.185-0.958-0.211-1.92-0.084-2.886
	c0.484-3.639,3.251-6.607,6.85-7.346c0.346-0.071,0.695-0.114,1.045-0.169c0.482,0,0.967,0,1.45,0
	c0.048,0.01,0.096,0.025,0.146,0.03c2.044,0.207,3.793,1.047,5.262,2.473c0.18,0.175,0.34,0.211,0.576,0.158
	c1.733-0.396,3.379-1.018,4.924-1.903c0.062-0.035,0.139-0.122,0.194-0.077c0.069,0.056-0.005,0.148-0.031,0.219
	c-0.659,1.812-1.792,3.254-3.388,4.334c-0.053,0.035-0.127,0.053-0.146,0.165c1.648-0.211,3.215-0.66,4.742-1.32
	C62.98,30.269,62.983,30.289,62.975,30.303z"/>
</svg>
